<svg width="34" height="40" viewBox="0 0 34 40" fill="none" xmlns="http://www.w3.org/2000/svg">
<path d="M17 28.2145C16.3568 28.2148 15.7277 28.0262 15.1906 27.6723C14.6535 27.3183 14.2322 26.8146 13.9788 26.2234C13.4487 26.0982 12.9269 25.9402 12.4164 25.7502L12.3885 25.7404C10.8895 25.1777 9.50595 24.3459 8.30598 23.286C6.69826 21.8677 5.4619 20.0777 4.70469 18.072C3.94748 16.0663 3.69241 13.9058 3.96174 11.7789C4.23106 9.65201 5.01659 7.62329 6.24984 5.86964C7.48309 4.11598 9.12661 2.69064 11.0371 1.71789C12.9476 0.745136 15.067 0.25451 17.2106 0.28879C19.3542 0.32307 21.4569 0.881216 23.3353 1.91456C25.2137 2.9479 26.8108 4.42507 27.9874 6.21726C29.1639 8.00945 29.8842 10.0623 30.0853 12.1967C30.1494 12.8752 29.5925 13.4288 28.9107 13.4288C28.2306 13.4288 27.6868 12.8752 27.6079 12.1983C27.3907 10.3309 26.6844 8.55385 25.5602 7.0469C24.4361 5.53996 22.9341 4.3565 21.2059 3.61616C19.4778 2.87582 17.5849 2.60484 15.7184 2.83062C13.852 3.0564 12.0782 3.77092 10.5765 4.90197C9.07474 6.03302 7.89821 7.5405 7.16583 9.27202C6.43345 11.0035 6.17119 12.8977 6.40556 14.7631C6.63993 16.6285 7.36261 18.3989 8.50056 19.8954C9.63852 21.392 11.1514 22.5616 12.8863 23.286L12.952 23.3139C13.2806 23.4486 13.6179 23.5674 13.964 23.6704C14.2805 22.8993 14.8782 22.2773 15.6361 21.9303C16.394 21.5834 17.2554 21.5375 18.0459 21.8019C18.8364 22.0663 19.4968 22.6212 19.8935 23.3543C20.2901 24.0874 20.3933 24.9439 20.1822 25.7502C20.0001 26.4557 19.5886 27.0806 19.0126 27.5267C18.4365 27.9727 17.7286 28.2147 17 28.2145ZM5.49998 25.7502H7.42048C6.50198 25.0343 5.66559 24.2189 4.92663 23.3188C3.72687 23.4593 2.6205 24.0356 1.81762 24.9381C1.01474 25.8406 0.571262 27.0066 0.571411 28.2145V29.3892C0.571411 35.4973 7.48784 39.7145 17 39.7145C26.5121 39.7145 33.4286 35.2657 33.4286 29.3892V28.2145C33.4286 26.9074 32.9093 25.6538 31.985 24.7295C31.0607 23.8052 29.8071 23.286 28.5 23.286H22.5118C22.7499 24.0846 22.8115 24.9254 22.6925 25.7502H28.5L28.7382 25.7617C29.3477 25.8209 29.9133 26.1049 30.3248 26.5583C30.7363 27.0118 30.9643 27.6022 30.9643 28.2145V29.3892L30.9561 29.6537C30.7261 33.7937 25.0927 37.2502 17 37.2502C8.60334 37.2502 3.0357 33.7822 3.0357 29.3892V28.2145L3.0472 27.9763C3.10639 27.3668 3.39037 26.8012 3.84381 26.3897C4.29724 25.9782 4.88765 25.7502 5.49998 25.7502ZM25.2143 13.4288C25.2145 14.9169 24.8106 16.3771 24.0455 17.6534C23.2805 18.9297 22.1831 19.9743 20.8706 20.6755C19.8116 19.7122 18.4315 19.1785 17 19.1788C17.7551 19.1788 18.5028 19.0301 19.2004 18.7411C19.898 18.4522 20.5319 18.0286 21.0658 17.4947C21.5998 16.9607 22.0233 16.3269 22.3123 15.6292C22.6013 14.9316 22.75 14.1839 22.75 13.4288C22.75 12.6737 22.6013 11.926 22.3123 11.2284C22.0233 10.5308 21.5998 9.89688 21.0658 9.36295C20.5319 8.82901 19.898 8.40547 19.2004 8.1165C18.5028 7.82754 17.7551 7.67881 17 7.67881C15.475 7.67881 14.0125 8.28461 12.9341 9.36295C11.8558 10.4413 11.25 11.9038 11.25 13.4288C11.25 14.9538 11.8558 16.4163 12.9341 17.4947C14.0125 18.573 15.475 19.1788 17 19.1788C15.5083 19.1788 14.1513 19.7472 13.1311 20.6771C11.8192 19.9765 10.7222 18.9328 9.95706 17.6575C9.3056 16.5722 8.91379 15.351 8.8122 14.0893C8.7106 12.8276 8.90198 11.5594 9.37139 10.3839C9.84081 9.20831 10.5755 8.15714 11.5183 7.31242C12.461 6.46769 13.5862 5.85226 14.806 5.51417C16.0258 5.17608 17.3073 5.12448 18.5504 5.36339C19.7934 5.6023 20.9645 6.12526 21.972 6.89146C22.9796 7.65765 23.7965 8.64633 24.3589 9.78034C24.9214 10.9144 25.2141 12.163 25.2143 13.4288Z" fill="#B5B5B5"/>
</svg>
