<svg width="48" height="48" viewBox="0 0 48 48" fill="none" xmlns="http://www.w3.org/2000/svg">
<g clip-path="url(#clip0_903_1041)">
<path d="M45.1429 35.6569H10.8571C9.94783 35.6569 9.07576 35.2957 8.43278 34.6527C7.78979 34.0098 7.42857 33.1377 7.42857 32.2284V8.22838C7.42857 7.31906 7.78979 6.44699 8.43278 5.80401C9.07576 5.16103 9.94783 4.7998 10.8571 4.7998H45.1429C46.0522 4.7998 46.9242 5.16103 47.5672 5.80401C48.2102 6.44699 48.5714 7.31906 48.5714 8.22838V32.2284C48.5701 33.1373 48.2084 34.0086 47.5657 34.6512C46.923 35.2939 46.0518 35.6556 45.1429 35.6569ZM10.8571 8.22838V32.2284H45.1429V8.22838H10.8571ZM4 39.0855H52V42.5141H4V39.0855Z" fill="#B5B5B5"/>
<path d="M26.9605 16.3203L24.16 21.1203H30.88L28.0794 25.9203" stroke="#B5B5B5" stroke-width="3" stroke-linecap="round" stroke-linejoin="round"/>
</g>
<defs>
<clipPath id="clip0_903_1041">
<rect width="48" height="48" fill="white"/>
</clipPath>
</defs>
</svg>
