<svg width="54" height="54" viewBox="0 0 54 54" fill="none" xmlns="http://www.w3.org/2000/svg">
<path d="M42.1875 19.5754L40.6688 19.0691C40.6688 18.7316 40.8375 18.3941 40.8375 18.0566C42.0188 12.4879 41.175 7.93164 38.6437 6.41289C36.1125 5.06289 32.0625 6.41289 28.0125 9.95664C27.675 10.2941 27.1687 10.6316 26.8312 10.9691C26.4937 10.8004 26.325 10.4629 25.9875 10.2941C21.9375 6.58164 17.7188 5.06289 15.1875 6.58164C12.6562 7.93164 11.9812 12.3191 12.9937 17.5504C13.1625 18.0566 13.1625 18.5629 13.3313 19.0691C12.6562 19.2379 12.15 19.4066 11.6438 19.5754C6.58125 21.2629 3.375 24.1316 3.375 26.8316C3.375 29.7004 6.75 32.7379 11.9812 34.4254C12.3187 34.5941 12.825 34.7629 13.3313 34.7629C13.1625 35.2691 12.9937 35.9441 12.9937 36.4504C11.9812 41.6816 12.825 45.7316 15.1875 47.2504C17.7188 48.7691 21.9375 47.2504 26.1562 43.5379C26.4937 43.2004 26.8313 42.8629 27.1688 42.6941C27.5063 43.0316 28.0125 43.5379 28.5187 43.8754C32.5688 47.4191 36.45 48.7691 38.9813 47.2504C41.5125 45.7316 42.3563 41.3441 41.3438 35.9441C41.3438 35.6066 41.175 35.1004 41.0062 34.5941C41.3438 34.4254 41.6812 34.4254 41.85 34.2566C47.25 32.4004 50.7938 29.5316 50.7938 26.6629C50.625 24.1316 47.25 21.4316 42.1875 19.5754ZM29.5312 11.6441C33.075 8.60664 36.2812 7.42539 37.8 8.26914C39.3187 9.11289 39.9938 12.8254 38.9813 17.7191C38.9813 18.0566 38.8125 18.3941 38.8125 18.7316C36.7875 18.2254 34.5937 17.8879 32.5687 17.7191C31.3875 16.0316 30.0375 14.3441 28.5187 12.6566L29.5312 11.6441ZM17.3813 29.3629C17.8875 30.2066 18.225 31.0504 18.7313 31.8941C19.2375 32.7379 19.7437 33.5816 20.25 34.2566C18.7312 34.0879 17.3812 33.9191 15.8625 33.5816C16.2 32.2316 16.7063 30.8816 17.3813 29.3629ZM17.3813 24.6379C16.7063 23.2879 16.3687 21.9379 15.8625 20.5879C17.2125 20.2504 18.7312 20.0816 20.0812 19.9129C19.575 20.7566 19.0688 21.4316 18.5625 22.2754C18.225 22.9504 17.7188 23.7941 17.3813 24.6379ZM18.3937 27.0004C19.0687 25.6504 19.7438 24.4691 20.4188 23.1191C21.0938 21.9379 21.9375 20.5879 22.7812 19.4066C24.1313 19.2379 25.65 19.2379 27.1688 19.2379C28.6875 19.2379 30.0375 19.2379 31.5563 19.4066C32.4 20.5879 33.075 21.7691 33.75 23.1191C34.425 24.3004 35.1 25.6504 35.775 27.0004C35.1 28.3504 34.425 29.5316 33.75 30.8816C33.075 32.0629 32.2313 33.4129 31.5563 34.5941C30.2063 34.7629 28.6875 34.7629 27.1688 34.7629C25.65 34.7629 24.3 34.7629 22.95 34.5941C22.1063 33.4129 21.4312 32.2316 20.5875 30.8816C19.7437 29.5316 19.0687 28.3504 18.3937 27.0004ZM35.2687 31.8941C35.775 31.0504 36.2812 30.2066 36.6188 29.3629C37.2938 30.7129 37.8 32.0629 38.1375 33.5816C36.6188 33.9191 35.2687 34.0879 33.75 34.2566C34.425 33.4129 34.9312 32.5691 35.2687 31.8941ZM36.6188 24.6379C36.1125 23.7941 35.775 22.9504 35.2687 22.1066C34.7625 21.2629 34.2563 20.5879 33.9188 19.7441C35.4375 19.9129 36.7875 20.2504 38.3063 20.4191C37.8 21.9379 37.2938 23.2879 36.6188 24.6379ZM27 14.0066C28.0125 15.0191 28.8563 16.2004 29.7 17.3816C27.8438 17.2129 25.9875 17.2129 24.1313 17.3816C25.1438 16.2004 26.1562 15.0191 27 14.0066ZM16.2 8.26914C17.7188 7.42539 21.2625 8.60664 24.975 11.9816L25.65 12.6566C24.1313 14.1754 22.7812 15.8629 21.6 17.7191C19.4062 17.8879 17.3813 18.2254 15.3563 18.7316C15.1875 18.2254 15.1875 17.7191 15.0187 17.2129C14.0062 12.6566 14.6813 9.11289 16.2 8.26914ZM13.8375 33.0754C13.5 32.9066 12.9937 32.9066 12.6562 32.7379C10.2937 31.8941 8.4375 30.8816 7.0875 29.8691C5.90625 28.8566 5.4 27.8441 5.4 27.0004C5.4 25.3129 7.93125 23.1191 12.3188 21.6004C12.825 21.4316 13.3313 21.2629 14.0063 21.0941C14.5125 23.1191 15.1875 25.1441 16.2 27.0004C15.1875 29.0254 14.5125 31.0504 13.8375 33.0754ZM24.8062 42.3566C22.95 44.0441 21.0938 45.0566 19.575 45.7316C18.0563 46.2379 17.0438 46.2379 16.2 45.9004C14.6813 45.0566 14.0063 41.6816 14.85 37.2941C15.0188 36.6191 15.1875 36.1129 15.1875 35.4379C17.2125 35.9441 19.4062 36.2816 21.6 36.2816C22.7812 37.9691 24.1313 39.6566 25.65 41.3441C25.3125 41.6816 25.1437 42.0191 24.8062 42.3566ZM27 39.9941C25.9875 38.9816 25.1438 37.8004 24.1313 36.6191H29.7C29.025 37.8004 28.0125 38.9816 27 39.9941ZM39.3187 42.8629C38.9812 44.3816 38.475 45.3941 37.8 45.7316C36.2812 46.5754 33.075 45.3941 29.7 42.5254C29.3625 42.1879 28.8562 41.8504 28.5187 41.5129C29.8687 39.9941 31.2188 38.3066 32.4 36.4504C34.5938 36.2816 36.6188 35.9441 38.8125 35.4379C38.9813 35.7754 38.9813 36.2816 39.15 36.6191C39.6562 38.9816 39.6562 41.1754 39.3187 42.8629ZM41.0062 32.7379C40.6687 32.7379 40.5 32.9066 40.1625 32.9066C39.4875 30.8816 38.6437 28.8566 37.8 26.8316C38.6437 24.9754 39.4875 22.9504 40.1625 20.9254C40.6687 21.0941 41.175 21.2629 41.5125 21.4316C45.9 22.9504 48.6 25.1441 48.6 26.8316C48.6 28.8566 45.7312 31.2191 41.0062 32.7379Z" fill="#B5B5B5"/>
<path d="M27 31.2183C27.8437 31.2183 28.6875 31.0496 29.3625 30.5433C30.0375 30.0371 30.5437 29.3621 30.8812 28.6871C31.2187 27.8433 31.2187 26.9996 31.05 26.1558C30.8812 25.3121 30.5437 24.6371 29.8687 23.9621C29.3625 23.2871 28.5187 22.9496 27.675 22.7808C26.8312 22.6121 25.9875 22.7808 25.1437 22.9496C24.3 23.2871 23.625 23.7933 23.2875 24.4683C22.7812 25.1433 22.6125 25.9871 22.6125 26.8308C22.6125 27.3371 22.7812 28.0121 22.95 28.5183C23.1187 29.0246 23.4562 29.5308 23.7937 29.8683C24.1312 30.2058 24.6375 30.5433 25.1437 30.7121C25.8187 31.0496 26.4937 31.2183 27 31.2183Z" fill="#B5B5B5" fill-opacity="0.9"/>
</svg>
