<svg width="54" height="54" viewBox="0 0 54 54" fill="none" xmlns="http://www.w3.org/2000/svg">
<g clip-path="url(#clip0_903_1046)">
<path d="M40.5 6H19.5C18.7044 6 17.9413 6.31607 17.3787 6.87868C16.8161 7.44129 16.5 8.20435 16.5 9V45C16.5 45.7957 16.8161 46.5587 17.3787 47.1213C17.9413 47.6839 18.7044 48 19.5 48H40.5C41.2956 48 42.0587 47.6839 42.6213 47.1213C43.1839 46.5587 43.5 45.7957 43.5 45V9C43.5 8.20435 43.1839 7.44129 42.6213 6.87868C42.0587 6.31607 41.2956 6 40.5 6ZM31.5 45H28.5V42H31.5V45ZM19.5 39V9H40.5V39H19.5Z" fill="#B5B5B5"/>
</g>
<defs>
<clipPath id="clip0_903_1046">
<rect width="54" height="54" fill="white"/>
</clipPath>
</defs>
</svg>
