<svg width="46" height="36" viewBox="0 0 46 36" fill="none" xmlns="http://www.w3.org/2000/svg">
<path d="M16 22.6667C16 25.7609 17.475 28.7283 20.1005 30.9162C22.726 33.1042 26.287 34.3333 30 34.3333C33.713 34.3333 37.274 33.1042 39.8995 30.9162C42.525 28.7283 44 25.7609 44 22.6667C44 19.5725 42.525 16.605 39.8995 14.4171C37.274 12.2292 33.713 11 30 11C26.287 11 22.726 12.2292 20.1005 14.4171C17.475 16.605 16 19.5725 16 22.6667Z" stroke="#B5B5B5" stroke-width="2.5" stroke-linecap="round" stroke-linejoin="round"/>
<path d="M2 27.3337L23 12.167M9 11.0003H30M25.3333 1.66699L38.5167 13.3337M27.6667 22.667C27.6667 23.2858 27.9125 23.8793 28.3501 24.3169C28.7877 24.7545 29.3812 25.0003 30 25.0003C30.6188 25.0003 31.2123 24.7545 31.6499 24.3169C32.0875 23.8793 32.3333 23.2858 32.3333 22.667C32.3333 22.0482 32.0875 21.4547 31.6499 21.0171C31.2123 20.5795 30.6188 20.3337 30 20.3337C29.3812 20.3337 28.7877 20.5795 28.3501 21.0171C27.9125 21.4547 27.6667 22.0482 27.6667 22.667Z" stroke="#B5B5B5" stroke-width="2.5" stroke-linecap="round" stroke-linejoin="round"/>
</svg>
