<svg width="54" height="43" viewBox="0 0 54 43" fill="none" xmlns="http://www.w3.org/2000/svg">
<g clip-path="url(#clip0_903_1062)">
<path d="M8.4 7.98325C8.4 5.04777 10.8216 2.66113 13.8 2.66113H46.2C49.1784 2.66113 51.6 5.04777 51.6 7.98325V29.2717H47.6538V6.75007H12.3462V29.2717H8.4V7.98325ZM3 33.5294C3 32.6479 3.72563 31.9328 4.62 31.9328H55.38C56.2744 31.9328 57 32.6479 57 33.5294C57 37.3847 47.6538 37.3847 47.6538 37.3847H12.3462C12.3462 37.3847 3 37.3847 3 33.5294ZM26.7094 17.3801L24.0938 19.958L26.7094 22.5359C27.5025 23.3176 27.5025 24.5816 26.7094 25.355C25.9163 26.1283 24.6338 26.1366 23.8491 25.355L19.7991 21.3634C19.0059 20.5817 19.0059 19.3177 19.7991 18.5443L23.8491 14.5527C24.6422 13.771 25.9247 13.771 26.7094 14.5527C27.4941 15.3344 27.5025 16.5984 26.7094 17.3718V17.3801ZM36.1594 14.5527L40.2094 18.5443C41.0025 19.326 41.0025 20.59 40.2094 21.3634L36.1594 25.355C35.3662 26.1366 34.0837 26.1366 33.2991 25.355C32.5144 24.5733 32.5059 23.3093 33.2991 22.5359L35.9147 19.958L33.2991 17.3801C32.5059 16.5984 32.5059 15.3344 33.2991 14.561C34.0922 13.7877 35.3747 13.7794 36.1594 14.561V14.5527Z" fill="#B5B5B5"/>
</g>
<defs>
<clipPath id="clip0_903_1062">
<rect width="54" height="42.5769" fill="white"/>
</clipPath>
</defs>
</svg>
