<svg width="36" height="45" viewBox="0 0 36 45" fill="none" xmlns="http://www.w3.org/2000/svg">
<g filter="url(#filter0_d_903_1013)">
<path d="M18 1.25H11.75C10.0924 1.25 8.50269 1.90848 7.33058 3.08058C6.15848 4.25269 5.5 5.8424 5.5 7.5C5.5 9.1576 6.15848 10.7473 7.33058 11.9194C8.50269 13.0915 10.0924 13.75 11.75 13.75H18M18 1.25V13.75M18 1.25H24.25C25.9076 1.25 27.4973 1.90848 28.6694 3.08058C29.8415 4.25269 30.5 5.8424 30.5 7.5C30.5 9.1576 29.8415 10.7473 28.6694 11.9194C27.4973 13.0915 25.9076 13.75 24.25 13.75H18" stroke="#B5B5B5" stroke-width="2.5" stroke-linecap="round" stroke-linejoin="round"/>
<path d="M11.75 26.25C10.0924 26.25 8.50269 26.9085 7.33058 28.0806C6.15848 29.2527 5.5 30.8424 5.5 32.5C5.5 34.1576 6.15848 35.7473 7.33058 36.9194C8.50269 38.0915 10.0924 38.75 11.75 38.75C13.4076 38.75 14.9973 38.0915 16.1694 36.9194C17.3415 35.7473 18 34.1576 18 32.5V26.25M11.75 26.25H18M11.75 26.25C10.0924 26.25 8.50269 25.5915 7.33058 24.4194C6.15848 23.2473 5.5 21.6576 5.5 20C5.5 18.3424 6.15848 16.7527 7.33058 15.5806C8.50269 14.4085 10.0924 13.75 11.75 13.75H18V26.25M18 20C18 18.3424 18.6585 16.7527 19.8306 15.5806C21.0027 14.4085 22.5924 13.75 24.25 13.75C25.9076 13.75 27.4973 14.4085 28.6694 15.5806C29.8415 16.7527 30.5 18.3424 30.5 20C30.5 21.6576 29.8415 23.2473 28.6694 24.4194C27.4973 25.5915 25.9076 26.25 24.25 26.25C22.5924 26.25 21.0027 25.5915 19.8306 24.4194C18.6585 23.2473 18 21.6576 18 20Z" stroke="#B5B5B5" stroke-width="2.5" stroke-linecap="round" stroke-linejoin="round"/>
</g>
<defs>
<filter id="filter0_d_903_1013" x="0.25" y="0" width="35.5" height="48" filterUnits="userSpaceOnUse" color-interpolation-filters="sRGB">
<feFlood flood-opacity="0" result="BackgroundImageFix"/>
<feColorMatrix in="SourceAlpha" type="matrix" values="0 0 0 0 0 0 0 0 0 0 0 0 0 0 0 0 0 0 127 0" result="hardAlpha"/>
<feOffset dy="4"/>
<feGaussianBlur stdDeviation="2"/>
<feComposite in2="hardAlpha" operator="out"/>
<feColorMatrix type="matrix" values="0 0 0 0 0 0 0 0 0 0 0 0 0 0 0 0 0 0 0.25 0"/>
<feBlend mode="normal" in2="BackgroundImageFix" result="effect1_dropShadow_903_1013"/>
<feBlend mode="normal" in="SourceGraphic" in2="effect1_dropShadow_903_1013" result="shape"/>
</filter>
</defs>
</svg>
