<svg width="44" height="44" viewBox="0 0 44 44" fill="none" xmlns="http://www.w3.org/2000/svg">
<path d="M29.3335 29.3337C29.3335 27.3078 23.5878 25.667 16.5002 25.667M29.3335 29.3337C29.3335 31.3595 23.5878 33.0003 16.5002 33.0003C9.4125 33.0003 3.66683 31.3595 3.66683 29.3337M29.3335 29.3337V38.3848C29.3335 40.473 23.5878 42.167 16.5002 42.167C9.4125 42.167 3.66683 40.4748 3.66683 38.3848V29.3337M29.3335 29.3337C36.3442 29.3337 42.1668 27.5242 42.1668 25.667V7.33366M16.5002 25.667C9.4125 25.667 3.66683 27.3078 3.66683 29.3337M16.5002 25.667C8.4005 25.667 1.8335 23.8575 1.8335 22.0003V12.8337M16.5002 9.16699C8.4005 9.16699 1.8335 10.8078 1.8335 12.8337M1.8335 12.8337C1.8335 14.8595 8.4005 16.5003 16.5002 16.5003C16.5002 18.3575 22.464 20.167 29.4747 20.167C36.4835 20.167 42.1668 18.3575 42.1668 16.5003M42.1668 7.33366C42.1668 5.30783 36.4835 3.66699 29.4747 3.66699C22.464 3.66699 16.7825 5.30783 16.7825 7.33366M42.1668 7.33366C42.1668 9.35949 36.4835 11.0003 29.4747 11.0003C22.4658 11.0003 16.7825 9.35949 16.7825 7.33366M16.7825 7.33366V25.9713" stroke="#B5B5B5" stroke-width="2.5"/>
</svg>
