<svg width="48" height="41" viewBox="0 0 48 41" fill="none" xmlns="http://www.w3.org/2000/svg">
<path d="M30.4263 16.3333C32.6803 16.3333 34.5097 18.1627 34.5097 20.4167V31.4977C34.5097 34.2831 33.4032 36.9544 31.4336 38.9239C29.464 40.8935 26.7927 40.6 24.0073 40.6C21.2219 40.6 18.5506 40.8935 16.5811 38.9239C14.6115 36.9544 13.505 34.2831 13.505 31.4977V20.4167C13.505 18.1627 15.332 16.3333 17.5883 16.3333H30.4263ZM30.4263 19.8333H17.5883C17.4336 19.8333 17.2852 19.8948 17.1758 20.0042C17.0665 20.1136 17.005 20.262 17.005 20.4167V31.4977C17.005 33.3548 17.7427 35.1359 19.0559 36.4491C20.3691 37.7623 22.1502 37.8 24.0073 37.8C25.8645 37.8 27.6455 37.7623 28.9587 36.4491C30.2719 35.1359 31.0097 33.3548 31.0097 31.4977V20.4167C31.0097 20.262 30.9482 20.1136 30.8388 20.0042C30.7294 19.8948 30.581 19.8333 30.4263 19.8333ZM4.75033 16.3333H12.6393C11.8164 17.3277 11.3137 18.5479 11.1973 19.8333H4.75033C4.59562 19.8333 4.44724 19.8948 4.33785 20.0042C4.22845 20.1136 4.16699 20.262 4.16699 20.4167V27.9977C4.1664 28.8795 4.36576 29.7501 4.75008 30.5438C5.13441 31.3375 5.69369 32.0338 6.38588 32.5802C7.07806 33.1266 7.88513 33.509 8.74639 33.6986C9.60765 33.8881 10.5007 33.88 11.3583 33.6747C11.5567 34.8507 11.9183 35.973 12.4153 37.016C11.6438 37.226 10.8388 37.3318 10.0003 37.3333C8.77446 37.3333 7.5606 37.0918 6.42807 36.6227C5.29555 36.1535 4.26655 35.4658 3.39984 34.5988C2.53313 33.7319 1.84569 32.7027 1.37678 31.5701C0.907874 30.4375 0.666686 29.2235 0.666992 27.9977V20.4167C0.666992 18.1627 2.49633 16.3333 4.75033 16.3333ZM35.3753 16.3333H43.2503C45.5043 16.3333 47.3337 18.1627 47.3337 20.4167V28C47.334 29.4307 47.0054 30.8424 46.3732 32.1258C45.7411 33.4093 44.8223 34.5303 43.688 35.4022C42.5536 36.2741 41.234 36.8735 39.831 37.1541C38.4281 37.4347 36.9795 37.3891 35.597 37.0207C36.0963 35.9753 36.458 34.853 36.6587 33.677C37.0895 33.7797 37.5368 33.8318 38.0003 33.8333C39.5474 33.8333 41.0312 33.2188 42.1251 32.1248C43.2191 31.0308 43.8337 29.5471 43.8337 28V20.4167C43.8337 20.262 43.7722 20.1136 43.6628 20.0042C43.5534 19.8948 43.405 19.8333 43.2503 19.8333H36.8173C36.701 18.5479 36.1983 17.3277 35.3753 16.3333ZM24.0003 0C25.8568 0 27.6373 0.737498 28.9501 2.05025C30.2628 3.36301 31.0003 5.14348 31.0003 7C31.0003 8.85652 30.2628 10.637 28.9501 11.9497C27.6373 13.2625 25.8568 14 24.0003 14C22.1438 14 20.3633 13.2625 19.0506 11.9497C17.7378 10.637 17.0003 8.85652 17.0003 7C17.0003 5.14348 17.7378 3.36301 19.0506 2.05025C20.3633 0.737498 22.1438 0 24.0003 0ZM39.167 2.33333C40.7141 2.33333 42.1978 2.94791 43.2918 4.04188C44.3857 5.13584 45.0003 6.61957 45.0003 8.16667C45.0003 9.71376 44.3857 11.1975 43.2918 12.2915C42.1978 13.3854 40.7141 14 39.167 14C37.6199 14 36.1362 13.3854 35.0422 12.2915C33.9482 11.1975 33.3337 9.71376 33.3337 8.16667C33.3337 6.61957 33.9482 5.13584 35.0422 4.04188C36.1362 2.94791 37.6199 2.33333 39.167 2.33333ZM8.83366 2.33333C10.3808 2.33333 11.8645 2.94791 12.9584 4.04188C14.0524 5.13584 14.667 6.61957 14.667 8.16667C14.667 9.71376 14.0524 11.1975 12.9584 12.2915C11.8645 13.3854 10.3808 14 8.83366 14C7.28656 14 5.80283 13.3854 4.70887 12.2915C3.61491 11.1975 3.00033 9.71376 3.00033 8.16667C3.00033 6.61957 3.61491 5.13584 4.70887 4.04188C5.80283 2.94791 7.28656 2.33333 8.83366 2.33333ZM24.0003 3.5C23.0721 3.5 22.1818 3.86875 21.5254 4.52513C20.8691 5.1815 20.5003 6.07174 20.5003 7C20.5003 7.92826 20.8691 8.8185 21.5254 9.47487C22.1818 10.1313 23.0721 10.5 24.0003 10.5C24.9286 10.5 25.8188 10.1313 26.4752 9.47487C27.1316 8.8185 27.5003 7.92826 27.5003 7C27.5003 6.07174 27.1316 5.1815 26.4752 4.52513C25.8188 3.86875 24.9286 3.5 24.0003 3.5ZM39.167 5.83333C38.5482 5.83333 37.9547 6.07917 37.5171 6.51675C37.0795 6.95434 36.8337 7.54783 36.8337 8.16667C36.8337 8.78551 37.0795 9.379 37.5171 9.81658C37.9547 10.2542 38.5482 10.5 39.167 10.5C39.7858 10.5 40.3793 10.2542 40.8169 9.81658C41.2545 9.379 41.5003 8.78551 41.5003 8.16667C41.5003 7.54783 41.2545 6.95434 40.8169 6.51675C40.3793 6.07917 39.7858 5.83333 39.167 5.83333ZM8.83366 5.83333C8.21482 5.83333 7.62133 6.07917 7.18374 6.51675C6.74616 6.95434 6.50033 7.54783 6.50033 8.16667C6.50033 8.78551 6.74616 9.379 7.18374 9.81658C7.62133 10.2542 8.21482 10.5 8.83366 10.5C9.4525 10.5 10.046 10.2542 10.4836 9.81658C10.9212 9.379 11.167 8.78551 11.167 8.16667C11.167 7.54783 10.9212 6.95434 10.4836 6.51675C10.046 6.07917 9.4525 5.83333 8.83366 5.83333Z" fill="#3E7EF1"/>
</svg>
