<svg width="54" height="54" viewBox="0 0 54 54" fill="none" xmlns="http://www.w3.org/2000/svg">
<path d="M32.7422 5.0625C35.1081 10.6464 24.2591 14.067 23.25 18.7211C22.3269 22.9922 29.6777 28.0024 29.6844 28.0024C28.5622 26.2356 27.7455 24.7455 26.625 21.9898C24.7266 17.3357 38.1928 13.1372 32.7422 5.0625ZM39.9141 12.8149C39.9141 12.8149 30.4286 13.4139 29.9477 19.6172C29.7283 22.3796 32.4519 23.8292 32.5312 25.8407C32.5987 27.4809 30.8961 28.8444 30.8961 28.8444C30.8961 28.8444 33.9487 28.2926 34.9039 25.7867C35.9586 23.0057 32.8485 21.1073 33.1641 18.8781C33.4678 16.7501 39.9141 12.8149 39.9141 12.8149ZM42.2344 27.1046C41.2388 27.0591 40.1182 27.4286 39.1226 28.1593C41.0869 27.7256 42.7626 28.9575 42.7626 30.375C42.7626 33.5526 38.2266 36.5445 38.2266 36.5445C38.2266 36.5445 45.2398 35.7598 45.2398 30.5336C45.2398 28.377 43.8898 27.1839 42.2344 27.1046ZM23.6196 27.1586C21.1727 27.243 16.2891 27.6463 16.2891 29.5312C16.2891 32.1553 27.6662 32.3595 35.8016 30.7446C35.8016 30.7446 38.0156 29.2022 38.5961 28.6352C33.2636 29.7422 21.0883 29.9143 21.0883 28.9508C21.0883 28.0682 24.9898 27.1586 24.9898 27.1586C24.9898 27.1586 24.4363 27.1316 23.6196 27.1586ZM22.8804 32.0102C21.5423 32.0102 19.5578 33.0514 19.5578 34.0656C19.5578 36.1091 29.6321 37.6785 37.0672 34.6984L34.482 33.1172C29.4398 34.7659 20.1248 34.2174 22.8804 32.0102ZM24.1461 36.5968C22.3202 36.5968 21.1406 37.7511 21.1406 38.6016C21.1406 41.2172 32.0503 41.4754 36.3804 38.8125L33.6383 37.0187C30.4084 38.4109 22.2814 38.6151 24.1461 36.5968ZM18.0289 38.9711C15.0504 38.9121 13.125 40.2621 13.125 41.3944C13.125 47.4255 43.6586 47.1369 43.6586 40.9725C43.6586 39.9516 42.4521 39.4639 42.0234 39.2327C44.5159 45.1254 17.0805 44.6648 17.0805 41.1834C17.0805 40.3937 19.1106 39.6022 20.982 39.9718L19.4008 39.0741C18.9464 39.0079 18.488 38.9747 18.0289 38.9711ZM46.875 43.0312C42.2344 47.52 30.4894 49.1282 18.6617 46.3539C30.4877 51.2983 46.8159 48.5477 46.875 43.0312Z" fill="#B5B5B5"/>
</svg>
