<svg width="54" height="54" viewBox="0 0 54 54" fill="none" xmlns="http://www.w3.org/2000/svg">
<path d="M27 12.0957C12.0909 12.0957 0 18.4475 0 26.2943C0 34.1412 12.0909 40.4963 27 40.4963C41.9091 40.4963 54 34.1412 54 26.2943C54 18.4475 41.9091 12.0957 27 12.0957ZM27 13.5132C41.4619 13.5132 52.5825 19.6034 52.5825 26.2943C52.5825 32.9853 41.4534 39.0788 27 39.0788C12.5381 39.0788 1.4175 32.9853 1.4175 26.2943C1.4175 19.6034 12.5466 13.5132 27 13.5132ZM23.7212 16.328L20.9908 30.4017H24.0368L25.6095 22.3355C28.0884 22.3355 29.1144 22.2376 29.565 22.7219C30.0324 23.2231 29.7928 23.7732 28.5069 30.4H31.5951C32.9316 23.5488 33.5222 22.0941 32.2869 20.9585C31.1107 19.8734 28.674 20.0641 26.0432 20.0641L26.7688 16.328H23.7212ZM10.9485 20.0742L8.21812 34.1581H11.2843L12.0099 30.4169C15.4389 30.4169 17.5703 30.6666 19.5396 28.8222C21.7181 26.8191 22.2868 23.2535 20.7326 21.4698C19.9226 20.5349 18.6182 20.0742 16.8514 20.0742H10.9485ZM34.8975 20.0742L32.1621 34.1581H35.2333L35.9589 30.4169C39.5651 30.4169 41.5614 30.6261 43.4886 28.8222C45.6671 26.8191 46.2375 23.2535 44.6833 21.4698C43.8733 20.5349 42.5689 20.0742 40.8004 20.0742H34.8975ZM15.7545 22.2933C17.6698 22.3473 18.765 22.7523 18.3026 25.157C17.6428 28.5387 15.3158 28.1894 12.4521 28.1894L13.5962 22.2966C14.3893 22.2966 15.1149 22.2747 15.7545 22.2933ZM39.7052 22.2933C41.6239 22.3473 42.7073 22.7523 42.2432 25.157C41.5749 28.5876 39.1804 28.1894 36.3926 28.1894L37.5368 22.2966C38.3349 22.2966 39.0673 22.2747 39.7052 22.2933Z" fill="#B5B5B5"/>
</svg>
