<svg width="44" height="45" viewBox="0 0 44 45" fill="none" xmlns="http://www.w3.org/2000/svg">
<path d="M12.0857 18.1372V42.3429M28.2229 9.82653L26.2058 18.1372H37.9657C38.592 18.1372 39.2097 18.283 39.7699 18.5631C40.3301 18.8432 40.8174 19.2498 41.1931 19.7509C41.5689 20.2519 41.8229 20.8336 41.9349 21.4498C42.047 22.066 42.014 22.6998 41.8386 23.3011L37.1387 39.4382C36.8943 40.2762 36.3847 41.0123 35.6863 41.5361C34.988 42.0598 34.1387 42.3429 33.2658 42.3429H6.03429C4.96433 42.3429 3.93819 41.9179 3.18162 41.1613C2.42504 40.4047 2 39.3786 2 38.3086V22.1715C2 21.1015 2.42504 20.0754 3.18162 19.3188C3.93819 18.5622 4.96433 18.1372 6.03429 18.1372H11.6016C12.3522 18.1368 13.0877 17.927 13.7256 17.5315C14.3634 17.1359 14.8783 16.5703 15.2123 15.8981L22.1715 2C23.1227 2.01178 24.059 2.23836 24.9103 2.66283C25.7617 3.08729 26.5062 3.69865 27.0881 4.45124C27.67 5.20383 28.0743 6.07819 28.2708 7.00898C28.4673 7.93978 28.4509 8.90295 28.2229 9.82653Z" stroke="#3E7EF1" stroke-width="4" stroke-linecap="round" stroke-linejoin="round"/>
</svg>
