<svg width="44" height="44" viewBox="0 0 44 44" fill="none" xmlns="http://www.w3.org/2000/svg">
<path d="M20.1117 15.1528C19.7276 15.4169 19.4197 15.7772 19.2188 16.1978C19.0484 16.5107 18.7633 16.7452 18.4234 16.8519C18.0835 16.9587 17.7155 16.9294 17.3968 16.7701C17.0781 16.6109 16.8337 16.3342 16.715 15.9983C16.5962 15.6625 16.6125 15.2936 16.7604 14.9695C17.127 14.2325 17.7008 13.4552 18.5882 12.8648C19.4828 12.2653 20.614 11.917 22 11.917C23.2063 11.917 24.5098 12.2745 25.5457 13.0518C26.1232 13.474 26.5915 14.0279 26.9116 14.6676C27.2318 15.3073 27.3946 16.0142 27.3863 16.7295C27.3863 18.6233 26.4458 19.8828 25.5035 20.7903C25.1552 21.1258 24.772 21.4467 24.442 21.7217L24.1725 21.9472C23.8884 22.1769 23.6218 22.4275 23.375 22.697V25.2087C23.375 25.5733 23.2301 25.9231 22.9723 26.1809C22.7144 26.4388 22.3647 26.5837 22 26.5837C21.6353 26.5837 21.2856 26.4388 21.0277 26.1809C20.7699 25.9231 20.625 25.5733 20.625 25.2087V22.5082C20.625 22.0737 20.7478 21.5842 21.0778 21.1588C21.4812 20.6455 21.9688 20.211 22.3942 19.8498L22.7297 19.5693L22.7315 19.5675C23.0468 19.3053 23.3255 19.0725 23.5932 18.8122C24.2679 18.1613 24.6363 17.5728 24.6363 16.7295C24.6449 16.4411 24.5818 16.1551 24.4525 15.8972C24.3232 15.6393 24.1319 15.4175 23.8957 15.2518C23.4044 14.8833 22.704 14.667 22 14.667C21.0943 14.667 20.5077 14.8888 20.1117 15.1528ZM23.8333 31.167C23.8333 31.6532 23.6402 32.1195 23.2964 32.4634C22.9526 32.8072 22.4862 33.0003 22 33.0003C21.5138 33.0003 21.0475 32.8072 20.7037 32.4634C20.3598 32.1195 20.1667 31.6532 20.1667 31.167C20.1667 30.6808 20.3598 30.2144 20.7037 29.8706C21.0475 29.5268 21.5138 29.3337 22 29.3337C22.4862 29.3337 22.9526 29.5268 23.2964 29.8706C23.6402 30.2144 23.8333 30.6808 23.8333 31.167Z" fill="#B5B5B5"/>
<path d="M22 1.83301C33.1375 1.83301 42.1667 10.8622 42.1667 21.9997C42.1667 33.1372 33.1375 42.1663 22 42.1663C10.8625 42.1663 1.83334 33.1372 1.83334 21.9997C1.83334 10.8622 10.8625 1.83301 22 1.83301ZM4.58334 21.9997C4.58334 26.6189 6.41831 31.0489 9.68457 34.3151C12.9508 37.5814 17.3808 39.4163 22 39.4163C26.6192 39.4163 31.0492 37.5814 34.3155 34.3151C37.5817 31.0489 39.4167 26.6189 39.4167 21.9997C39.4167 17.3805 37.5817 12.9505 34.3155 9.68423C31.0492 6.41797 26.6192 4.58301 22 4.58301C17.3808 4.58301 12.9508 6.41797 9.68457 9.68423C6.41831 12.9505 4.58334 17.3805 4.58334 21.9997Z" fill="#B5B5B5"/>
</svg>
