<svg width="50" height="50" viewBox="0 0 50 50" fill="none" xmlns="http://www.w3.org/2000/svg">
<path d="M20.9304 47.9178C23.7263 50.7128 26.279 50.6912 29.0534 47.9178L32.4429 44.549C32.7951 44.2193 33.1031 44.0869 33.5652 44.0869H38.3203C42.2602 44.0869 44.0869 42.2818 44.0869 38.3203V33.5652C44.0869 33.1031 44.2193 32.7951 44.549 32.4429L47.8953 29.0525C50.7128 26.279 50.6903 23.7263 47.8953 20.9304L44.549 17.54C44.2193 17.2112 44.0869 16.8806 44.0869 16.4402V11.6635C44.0869 7.74521 42.2818 5.8969 38.3203 5.8969H33.5652C33.1031 5.8969 32.7951 5.78608 32.4429 5.45549L29.0525 2.08852C26.279 -0.707431 23.7263 -0.684891 20.9304 2.08852L17.54 5.45643C17.2112 5.78608 16.8806 5.89596 16.4402 5.89596H11.6635C7.72361 5.89596 5.8969 7.70107 5.8969 11.6625V16.4402C5.8969 16.8806 5.78608 17.2103 5.45549 17.5409L2.08852 20.9313C-0.707431 23.7264 -0.684891 26.279 2.08852 29.0534L5.45643 32.4429C5.78608 32.7951 5.89596 33.1031 5.89596 33.5652V38.3203C5.89596 42.2602 7.72361 44.0869 11.6625 44.0869H16.4402C16.8806 44.0869 17.2103 44.2193 17.5409 44.549L20.9304 47.9178ZM23.3958 45.4515L19.2577 41.2909C18.7731 40.7857 18.2669 40.5866 17.585 40.5866H11.6635C9.70435 40.5866 9.3963 40.2794 9.3963 38.3203V32.3988C9.3963 31.7385 9.19813 31.2323 8.71351 30.7477L4.55293 26.6096C3.1667 25.2009 3.1667 24.8045 4.55293 23.3958L8.71351 19.2577C9.19813 18.7731 9.3963 18.2669 9.3963 17.585V11.6635C9.3963 9.68181 9.68275 9.3963 11.6635 9.3963H17.585C18.2669 9.3963 18.7731 9.21973 19.2568 8.71351L23.3958 4.55293C24.8045 3.1667 25.2009 3.1667 26.6096 4.55293L30.7477 8.71351C31.2323 9.22067 31.7385 9.3963 32.3988 9.3963H38.3203C40.2794 9.3963 40.5875 9.70435 40.5875 11.6635V17.585C40.5875 18.2669 40.8073 18.7731 41.2919 19.2568L45.4525 23.3958C46.8387 24.8045 46.8387 25.2009 45.4525 26.6096L41.2919 30.7477C40.8073 31.2323 40.5875 31.7385 40.5875 32.3988V38.3203C40.5875 40.2794 40.2794 40.5875 38.3203 40.5875H32.3988C31.7385 40.5875 31.2323 40.7847 30.7477 41.2919L26.6096 45.4525C25.2009 46.8387 24.8045 46.8378 23.3958 45.4515ZM21.569 35.5478C22.2077 35.5478 22.6914 35.283 23.022 34.8867L35.2388 17.8057C35.4802 17.4535 35.6126 17.0572 35.6126 16.6834C35.6126 15.7142 34.8641 14.9441 33.8517 14.9441C33.1257 14.9441 32.7294 15.1864 32.2889 15.825L21.5024 31.0116L15.933 24.8703C15.5592 24.4523 15.1413 24.2767 14.5909 24.2767C13.5127 24.2767 12.7417 25.0027 12.7417 26.0151C12.7417 26.4556 12.8957 26.8736 13.2047 27.1816L20.2044 34.974C20.5341 35.3262 20.9529 35.5478 21.569 35.5478Z" fill="#3E7EF1"/>
</svg>
