<svg width="40" height="40" viewBox="0 0 40 40" fill="none" xmlns="http://www.w3.org/2000/svg">
<path d="M38.75 9.58333V30.4167C38.75 32.6268 37.872 34.7464 36.3092 36.3092C34.7464 37.872 32.6268 38.75 30.4167 38.75H9.58333C7.3732 38.75 5.25358 37.872 3.69078 36.3092C2.12797 34.7464 1.25 32.6268 1.25 30.4167V9.58333C1.25 7.3732 2.12797 5.25358 3.69078 3.69078C5.25358 2.12797 7.3732 1.25 9.58333 1.25H30.4167C32.6268 1.25 34.7464 2.12797 36.3092 3.69078C37.872 5.25358 38.75 7.3732 38.75 9.58333Z" stroke="#B5B5B5" stroke-width="2.5" stroke-linecap="round" stroke-linejoin="round"/>
<path d="M9.58331 28.3337V20.0003M9.58331 20.0003V11.667H13.75C14.855 11.667 15.9149 12.106 16.6963 12.8874C17.4777 13.6688 17.9166 14.7286 17.9166 15.8337C17.9166 16.9387 17.4777 17.9985 16.6963 18.7799C15.9149 19.5613 14.855 20.0003 13.75 20.0003H9.58331ZM30.4166 17.917C29.7791 16.6399 28.4729 15.8337 27.0458 15.8337H26.25C25.4212 15.8337 24.6263 16.1629 24.0403 16.749C23.4542 17.335 23.125 18.1299 23.125 18.9587C23.125 19.7875 23.4542 20.5823 24.0403 21.1684C24.6263 21.7544 25.4212 22.0837 26.25 22.0837H27.2916C28.1204 22.0837 28.9153 22.4129 29.5014 22.999C30.0874 23.585 30.4166 24.3799 30.4166 25.2087C30.4166 26.0375 30.0874 26.8323 29.5014 27.4184C28.9153 28.0044 28.1204 28.3337 27.2916 28.3337H26.4958C25.796 28.3334 25.11 28.1384 24.5147 27.7705C23.9194 27.4025 23.4382 26.8762 23.125 26.2503" stroke="#B5B5B5" stroke-width="2.5" stroke-linecap="round" stroke-linejoin="round"/>
</svg>
