<svg width="46" height="48" viewBox="0 0 46 48" fill="none" xmlns="http://www.w3.org/2000/svg">
<path d="M30.1875 4.50007C23.8194 4.50007 18.6875 9.85507 18.6875 16.5001C18.6875 16.8526 18.7407 17.3296 18.7781 17.7661L6.46875 30.6091C5.79638 31.3061 5.26277 32.1351 4.89864 33.0482C4.53451 33.9613 4.34705 34.9406 4.34705 35.9296C4.34705 36.9186 4.53451 37.8978 4.89864 38.811C5.26277 39.7241 5.79638 40.553 6.46875 41.2501C7.13677 41.9517 7.93118 42.5085 8.80625 42.8885C9.68131 43.2684 10.6198 43.464 11.5676 43.464C12.5154 43.464 13.4538 43.2684 14.3289 42.8885C15.204 42.5085 15.9984 41.9517 16.6664 41.2501L28.9743 28.4056C29.3911 28.4446 29.8511 28.5001 30.1875 28.5001C36.5556 28.5001 41.6875 23.1451 41.6875 16.5001C41.6951 14.5666 41.2311 12.6628 40.3391 10.9681L39.4407 9.23408L38.0938 10.6411L31.8938 17.0611L29.6484 14.7181L35.8009 8.25007L37.1522 6.84307L35.489 5.90557C33.8642 4.97667 32.0402 4.49308 30.1875 4.50007ZM30.1875 7.50007C30.8861 7.50007 31.4065 7.81508 32.0275 7.96957L26.5938 13.6396L25.5588 14.7196L26.5938 15.7501L30.9063 20.2501L31.8953 21.3301L32.9274 20.2501L38.364 14.5801C38.5121 15.2281 38.8125 15.7711 38.8125 16.5001C38.8125 21.5551 35.0319 25.5001 30.1875 25.5001C29.6125 25.5001 29.1525 25.5001 28.7931 25.4056L28.0313 25.1716L27.4476 25.7821L14.6438 39.1426C12.8757 40.9876 10.2594 40.9876 8.49131 39.1426L8.44531 39.0946C6.72031 37.2496 6.73469 34.5496 8.48844 32.7196L21.2923 19.3606L21.8773 18.7516L21.6502 17.9566C21.5639 17.5816 21.5611 17.1016 21.5611 16.5016C21.5611 11.4466 25.3417 7.50157 30.1861 7.50157L30.1875 7.50007Z" fill="#B5B5B5"/>
</svg>
